# xmcd
#
# Track frame offsets: 
#        150
#        16236
#        39201
#        54085
#        71988
#        90842
#        109976
#        127316
#        152376
#        174650
#        199196
#        203390
#
# Disc length: 3021 seconds
#
# Revision: 0
# Processed by: cddbd v1.5.2PL0 Copyright (c) Steve Scherf et al.
# Submitted via: ExactAudioCopy v0.95b4
#
DISCID=940bcb0c
DTITLE=Robyn Ludwick - Too Much Desire
DYEAR=2008
DGENRE=Country
TTITLE0=Alright
TTITLE1='72 Texas
TTITLE2=No Way Out
TTITLE3=Big Fall
TTITLE4=Boulevard
TTITLE5=Monte Carlo
TTITLE6=Lolita
TTITLE7=Sweet Marie
TTITLE8=Pleasure and Pain
TTITLE9=Desire
TTITLE10=Lullaby
TTITLE11=Julia Odessa
EXTD=
EXTT0=
EXTT1=
EXTT2=
EXTT3=
EXTT4=
EXTT5=
EXTT6=
EXTT7=
EXTT8=
EXTT9=
EXTT10=
EXTT11=
PLAYORDER=
